<svg width="24" height="24" viewBox="0 0 24 24" fill="none" xmlns="http://www.w3.org/2000/svg">
<g id="live_help">
<mask id="mask0_4484_25035" style="mask-type:alpha" maskUnits="userSpaceOnUse" x="0" y="0" width="24" height="24">
<rect id="Bounding box" width="24" height="24" fill="#D9D9D9"/>
</mask>
<g mask="url(#mask0_4484_25035)">
<path id="Vector" d="M20.8 16.4V3.2H7.6V16.4H20.8ZM23 16.4C23 17.61 22.01 18.6 20.8 18.6H7.6C6.39 18.6 5.4 17.61 5.4 16.4V3.2C5.4 1.99 6.39 1 7.6 1H20.8C22.01 1 23 1.99 23 3.2V16.4ZM16.4 20.8V23H3.2C1.99 23 1 22.01 1 20.8V6.5H3.2V20.8H16.4ZM14.42 4.3C13.43 4.3 12.66 4.52 12.11 4.96C11.56 5.4 11.23 6.06 11.23 6.94H13.32C13.32 6.61 13.43 6.39 13.65 6.17C13.87 6.06 14.09 5.95 14.42 5.95C14.75 5.95 15.08 6.06 15.3 6.28C15.52 6.5 15.63 6.72 15.63 7.16C15.63 7.49 15.52 7.82 15.41 8.04C15.3 8.26 14.97 8.48 14.75 8.7C14.2 9.03 13.76 9.36 13.65 9.69C13.21 9.91 13.1 10.35 13.1 10.9H15.3C15.3 10.57 15.3 10.24 15.41 10.13C15.52 9.91 15.74 9.69 15.96 9.58C16.4 9.36 16.84 9.03 17.17 8.59C17.5 8.04 17.72 7.6 17.72 7.05C17.72 6.17 17.39 5.51 16.84 5.07C16.29 4.52 15.41 4.3 14.42 4.3ZM13.1 12V14.2H15.3V12H13.1Z" fill="#7D7D7D"/>
</g>
</g>
</svg>
